<svg width="11" height="16" viewBox="0 0 11 16" fill="none" xmlns="http://www.w3.org/2000/svg">
<path d="M2.92669 1.70057H1.82269L1.94612 1.15886H3.53012V6H2.92669V1.70057Z" fill="white"/>
<path d="M6.46255 12.83L8.71855 10.7866C8.95169 10.5763 9.13455 10.398 9.26712 10.2517C9.39969 10.1054 9.49569 9.96599 9.55512 9.83342C9.61455 9.70085 9.64426 9.56142 9.64426 9.41514C9.64426 9.26428 9.61684 9.12714 9.56198 9.00371C9.48426 8.82542 9.34712 8.68828 9.15055 8.59228C8.95398 8.49628 8.71855 8.44828 8.44426 8.44828C8.14255 8.44828 7.88884 8.50542 7.68312 8.61971C7.48198 8.73399 7.33569 8.89399 7.24426 9.09971C7.17112 9.25971 7.13455 9.45399 7.13455 9.68256H6.51741C6.51741 9.37628 6.57226 9.09971 6.68198 8.85285C6.81912 8.54656 7.03855 8.31114 7.34026 8.14656C7.64198 7.98199 8.01226 7.89971 8.45112 7.89971C8.85798 7.89971 9.20769 7.97285 9.50026 8.11914C9.79741 8.26542 10.0168 8.48714 10.1586 8.78428C10.2408 8.96256 10.282 9.17285 10.282 9.41514C10.282 9.60714 10.25 9.78085 10.186 9.93628C10.1266 10.0917 10.0328 10.2471 9.90484 10.4026C9.77684 10.558 9.60084 10.7363 9.37684 10.9374C8.91969 11.3443 8.39626 11.806 7.80655 12.3226H10.3505V12.8574H6.46255V12.83Z" fill="white"/>
<line x1="9.30823" y1="3.63758" x2="0.736801" y2="11.6376" stroke="white" stroke-width="0.571429"/>
</svg>
