<svg width="86" height="88" viewBox="0 0 86 88" fill="none" xmlns="http://www.w3.org/2000/svg">
<g clip-path="url(#clip0_475_4961)">
<path d="M31.9583 6.14551C32.8539 6.14551 33.6935 6.38494 34.4167 6.80327C35.1398 6.38494 35.9795 6.14551 36.875 6.14551H50.3958C51.2914 6.14551 52.131 6.38494 52.8542 6.80327C53.5774 6.38494 54.417 6.14551 55.3125 6.14551H67.6042C70.3196 6.14551 72.5208 8.34677 72.5208 11.0622V22.1247C72.5208 23.6722 71.7922 25.1295 70.5542 26.058L62.9676 31.748L65.1158 51.0817C65.6845 56.2003 68.0669 58.7973 71.5375 63.4247C72.1758 64.2757 72.5208 65.3109 72.5208 66.3747V76.208C72.5208 78.9234 70.3196 81.1247 67.6042 81.1247H19.6667C16.9513 81.1247 14.75 78.9234 14.75 76.208V66.3747C14.75 65.3109 15.095 64.2757 15.7333 63.4247C19.2039 58.7973 21.5863 56.2003 22.1551 51.0817L24.3033 31.748L16.7167 26.058C15.4786 25.1295 14.75 23.6722 14.75 22.1247V11.0622C14.75 8.34677 16.9513 6.14551 19.6667 6.14551H31.9583Z" fill="#F4F7FA"/>
<path d="M19.6665 11.0625H31.9582V18.4375H36.8748V11.0625H50.3957V18.4375H55.3123V11.0625H67.604V22.125L57.7707 29.5L60.229 51.625H27.0415L29.4998 29.5L19.6665 22.125V11.0625Z" fill="#34364C"/>
<path d="M27.0415 56.5417H60.229L67.604 66.375V76.2083H19.6665V66.375L27.0415 56.5417Z" fill="#34364C"/>
</g>
<g clip-path="url(#clip1_475_4961)">
<path d="M31.6508 6.14746C32.5512 6.14746 33.3954 6.38697 34.1225 6.80545C34.8495 6.38697 35.6937 6.14746 36.5941 6.14746H50.1879C51.0883 6.14746 51.9324 6.38697 52.6595 6.80545C53.3866 6.38697 54.2307 6.14746 55.1311 6.14746H67.4891C70.2192 6.14746 72.4323 8.34947 72.4323 11.0658V22.132C72.4323 23.6801 71.6998 25.1379 70.455 26.0667L62.8275 31.7586L64.9873 51.0989C65.5591 56.2192 67.9544 58.8171 71.4437 63.4461C72.0854 64.2974 72.4323 65.3329 72.4323 66.3971V76.2337C72.4323 78.95 70.2192 81.152 67.4891 81.152H19.2928C16.5628 81.152 14.3496 78.95 14.3496 76.2337V66.397C14.3496 65.3329 14.6965 64.2974 15.3383 63.446C18.8276 58.8171 21.2229 56.2192 21.7947 51.0989L23.9545 31.7586L16.3269 26.0667C15.0822 25.1379 14.3496 23.6801 14.3496 22.132V11.0658C14.3496 8.34947 16.5628 6.14746 19.2928 6.14746H31.6508Z" fill="#34364C"/>
<path d="M19.293 11.0664H31.651V18.4439H36.5942V11.0664H50.188V18.4439H55.1312V11.0664H67.4893V22.1327L57.6028 29.5102L60.0744 51.6427H26.7078L29.1794 29.5102L19.293 22.1327V11.0664Z" fill="#F4F7FA"/>
<path d="M26.7078 56.561H60.0744L67.4893 66.3977V76.2343H19.293V66.3977L26.7078 56.561Z" fill="#F4F7FA"/>
</g>
<defs>
<clipPath id="clip0_475_4961">
<rect width="43" height="88" fill="white"/>
</clipPath>
<clipPath id="clip1_475_4961">
<rect width="43" height="88" fill="white" transform="translate(43)"/>
</clipPath>
</defs>
</svg>
