<svg width="8" height="6" viewBox="0 0 8 6" fill="none" xmlns="http://www.w3.org/2000/svg">
<path fill-rule="evenodd" clip-rule="evenodd" d="M6.5371 0.119322L3.49359 2.71193C3.30682 2.87103 3.30682 3.12897 3.49359 3.28807L6.5371 5.88068C6.72387 6.03977 7.02668 6.03977 7.21344 5.88068C7.40021 5.72158 7.40021 5.46364 7.21344 5.30454L4.50809 3L7.21344 0.695457C7.40021 0.536362 7.40021 0.278417 7.21344 0.119322C7.02668 -0.0397739 6.72387 -0.0397739 6.5371 0.119322Z" fill="white"/>
<path fill-rule="evenodd" clip-rule="evenodd" d="M3.5371 0.119322L0.49359 2.71193C0.306824 2.87103 0.306824 3.12897 0.49359 3.28807L3.5371 5.88068C3.72387 6.03977 4.02668 6.03977 4.21344 5.88068C4.40021 5.72158 4.40021 5.46364 4.21344 5.30454L1.50809 3L4.21344 0.695457C4.40021 0.536362 4.40021 0.278417 4.21344 0.119322C4.02668 -0.0397739 3.72387 -0.0397739 3.5371 0.119322Z" fill="white"/>
</svg>