<svg width="47" height="64" viewBox="0 0 47 64" fill="none" xmlns="http://www.w3.org/2000/svg">
<path d="M13.9156 14.584C13.5178 13.4913 13.3003 12.3118 13.3003 11.0831C13.3003 5.42859 17.8842 0.844727 23.5387 0.844727C29.1932 0.844727 33.7771 5.42859 33.7771 11.0831C33.7771 12.7395 33.3813 14.3095 32.6795 15.6979C33.6893 15.7677 34.6705 16.2227 35.3859 17.0402C39.2726 21.4822 42.6738 27.8156 42.6738 35.1566C42.6738 40.4049 40.867 44.294 38.4254 47.0962L43.0626 47.9094C44.9561 48.2415 46.3372 49.8859 46.3372 51.8083V59.2302C46.3372 60.28 45.9202 61.2868 45.1778 62.0291C44.4355 62.7715 43.4287 63.1885 42.3789 63.1885L4.69857 63.1885C2.51244 63.1885 0.740234 61.4163 0.740234 59.2301V51.8083C0.740234 49.8882 2.11826 48.245 4.00902 47.9105L8.19206 47.1705C5.71722 44.363 3.88026 40.4522 3.88026 35.1566C3.88026 29.4292 6.09981 24.4412 8.70304 20.6186C10.3393 18.2159 12.1918 16.1761 13.9156 14.584Z" fill="#F4F7FA"/>
<path d="M25.4795 34.633H21.5212C21.5212 27.3646 23.7257 20.1085 28.6027 14.7972C29.367 13.7569 29.8184 12.4726 29.8184 11.0828C29.8184 7.6144 27.0068 4.80273 23.5384 4.80273C20.07 4.80273 17.2583 7.6144 17.2583 11.0828C17.2583 12.794 17.9428 14.3453 19.0528 15.478C15.1299 18.2747 7.83827 25.7709 7.83827 35.1563C7.83827 44.6278 15.2642 48.4624 19.1599 49.2496L4.69824 51.8079V59.2298L42.3785 59.2298V51.8079L27.574 49.2115C31.5137 48.3443 38.7152 44.4836 38.7152 35.1563C38.7152 29.049 35.8701 23.6048 32.4066 19.6465C28.6027 22.6152 25.4795 29.5423 25.4795 34.633Z" fill="#34364C"/>
</svg>
