<svg width="48" height="62" viewBox="0 0 48 62" fill="none" xmlns="http://www.w3.org/2000/svg">
<path d="M14.6051 0.823242C15.3261 0.823242 16.0021 1.016 16.5843 1.3528C17.1665 1.016 17.8425 0.823242 18.5635 0.823242H29.4489C30.1699 0.823242 30.8459 1.016 31.4281 1.3528C32.0103 1.016 32.6862 0.823242 33.4072 0.823242H43.3031C45.4892 0.823242 47.2614 2.59545 47.2614 4.78158V13.6878C47.2614 14.9337 46.6748 16.1069 45.6781 16.8545L39.5702 21.4354L41.2997 37.0007C41.7576 41.1216 43.6756 43.2124 46.4697 46.9378C46.9836 47.623 47.2614 48.4564 47.2614 49.3128V57.2295C47.2614 59.4156 45.4892 61.1878 43.3031 61.1878H4.70931C2.52318 61.1878 0.750977 59.4156 0.750977 57.2295V49.3128C0.750977 48.4564 1.02876 47.623 1.54264 46.9378C4.33674 43.2124 6.25481 41.1216 6.71269 37.0007L8.44217 21.4354L2.33431 16.8545C1.33758 16.1069 0.750977 14.9337 0.750977 13.6878V4.78158C0.750977 2.59545 2.52318 0.823242 4.70931 0.823242H14.6051Z" fill="#F4F7FA"/>
<path d="M4.70801 4.78223H14.6038V10.7197H18.5622V4.78223H29.4476V10.7197H33.4059V4.78223H43.3018V13.6885L35.3851 19.626L37.3643 37.4385H10.6455L12.6247 19.626L4.70801 13.6885V4.78223Z" fill="#34364C"/>
<path d="M10.6455 41.3968H37.3643L43.3018 49.3135V57.2301H4.70801V49.3135L10.6455 41.3968Z" fill="#34364C"/>
</svg>
