<svg width="60" height="66" viewBox="0 0 60 66" fill="none" xmlns="http://www.w3.org/2000/svg">
<path d="M26.256 0.377369C27.5589 0.230857 28.8499 0.739056 29.7033 1.73445L37.7793 11.1538C47.0536 13.4456 52.4271 20.4292 55.3992 29.1472C58.4616 38.1305 59.2191 49.5349 59.2191 61.2298C59.2191 63.416 57.4469 65.1882 55.2608 65.1882H18.3542C16.2528 65.1882 14.5176 63.5461 14.4019 61.4478C14.2986 59.5753 14.7294 56.3264 16.0422 53.0078L16.0663 52.9471C12.3383 54.9481 8.20099 54.4688 5.12962 52.2821C1.39705 49.6245 -0.678353 44.4222 1.69283 39.2846C3.40271 35.5799 5.24559 33.6181 6.63972 32.1344C7.94195 30.7484 8.48464 30.1388 8.86856 28.6032C11.1963 19.2922 15.9851 13.9285 21.1279 11.4806C21.0536 10.4199 21.1141 9.39793 21.2442 8.47011C21.568 6.16061 22.3743 4.02637 23.1961 2.46616C23.8071 1.30609 24.953 0.523881 26.256 0.377369Z" fill="#F4F7FA"/>
<path fill-rule="evenodd" clip-rule="evenodd" d="M35.6388 14.7374L26.6991 4.31055C25.405 6.76728 24.1505 11.1032 25.9541 14.2334C25.0787 14.3113 24.2421 14.4594 23.5949 14.7191C19.4662 16.3759 14.9361 20.6566 12.7095 29.5628C12.0648 32.1417 10.9044 33.3767 9.52522 34.8445C8.22428 36.229 6.72868 37.8208 5.28763 40.943C2.31888 47.3753 10.3309 53.8076 16.1731 47.9654C19.4576 44.6809 22.3286 43.325 24.7391 42.1865C28.2084 40.548 30.7235 39.3602 32.1443 33.5212C32.8202 36.2448 32.5498 42.6725 26.0608 46.5946C19.5717 50.5166 18.2198 58.7782 18.355 61.2295H55.2616C55.2616 37.9577 52.1805 17.8509 35.6388 14.7374Z" fill="#34364C"/>
<circle cx="24.583" cy="26.5938" r="2.96875" fill="#F4F7FA"/>
</svg>
