<svg width="90" height="90" viewBox="0 0 90 90" fill="none" xmlns="http://www.w3.org/2000/svg">
<path d="M32.7083 6.89551C33.6039 6.89551 34.4435 7.13494 35.1667 7.55327C35.8898 7.13494 36.7295 6.89551 37.625 6.89551H51.1458C52.0414 6.89551 52.881 7.13494 53.6042 7.55327C54.3274 7.13494 55.167 6.89551 56.0625 6.89551H68.3542C71.0696 6.89551 73.2708 9.09677 73.2708 11.8122V22.8747C73.2708 24.4222 72.5422 25.8795 71.3042 26.808L63.7176 32.498L65.8658 51.8317C66.4345 56.9503 68.8169 59.5473 72.2875 64.1747C72.9258 65.0257 73.2708 66.0609 73.2708 67.1247V76.958C73.2708 79.6734 71.0696 81.8747 68.3542 81.8747H20.4167C17.7013 81.8747 15.5 79.6734 15.5 76.958V67.1247C15.5 66.0609 15.845 65.0257 16.4833 64.1747C19.9539 59.5473 22.3363 56.9503 22.9051 51.8317L25.0533 32.498L17.4667 26.808C16.2286 25.8795 15.5 24.4222 15.5 22.8747V11.8122C15.5 9.09677 17.7013 6.89551 20.4167 6.89551H32.7083Z" fill="#F4F7FA"/>
<path d="M20.4165 11.8125H32.7082V19.1875H37.6248V11.8125H51.1457V19.1875H56.0623V11.8125H68.354V22.875L58.5207 30.25L60.979 52.375H27.7915L30.2498 30.25L20.4165 22.875V11.8125Z" fill="#34364C"/>
<path d="M27.7915 57.2917H60.979L68.354 67.125V76.9583H20.4165V67.125L27.7915 57.2917Z" fill="#34364C"/>
</svg>