<svg width="71" height="66" viewBox="0 0 71 66" fill="none" xmlns="http://www.w3.org/2000/svg">
<path d="M17.6882 9.77149C17.6882 10.7485 17.8453 11.6886 18.1358 12.5679L16.1819 13.4844C14.5621 11.8054 12.2887 10.7611 9.77148 10.7611C4.8527 10.7611 0.865234 14.7485 0.865234 19.6673C0.865234 24.052 4.03368 27.6966 8.20587 28.4364L12.8986 44.5257C12.9965 44.8615 13.1386 45.1829 13.321 45.4814L16.0256 49.9072L16.009 49.9101C14.1183 50.2446 12.7402 51.8878 12.7402 53.8079V61.2298C12.7402 63.4159 14.5124 65.1881 16.6986 65.1881L54.3789 65.1882C55.4287 65.1882 56.4355 64.7711 57.1778 64.0288C57.9202 63.2865 58.3372 62.2796 58.3372 61.2298V53.8079C58.3372 51.8856 56.9561 50.2412 55.0626 49.9091L54.983 49.8952L57.6803 45.4814C57.8627 45.1829 58.0048 44.8615 58.1027 44.5257L62.7954 28.4364C66.9676 27.6966 70.1361 24.052 70.1361 19.6673C70.1361 14.7485 66.1486 10.7611 61.2298 10.7611C58.7094 10.7611 56.4335 11.808 54.8133 13.4908L52.8629 12.5759C53.155 11.6943 53.3132 10.7515 53.3132 9.77149C53.3132 4.8527 49.3257 0.865234 44.4069 0.865234C39.4881 0.865234 35.5007 4.8527 35.5007 9.77149C35.5007 4.8527 31.5132 0.865234 26.5944 0.865234C21.6756 0.865234 17.6882 4.8527 17.6882 9.77149Z" fill="#F4F7FA"/>
<path d="M28.3702 14.3907C30.2254 13.677 31.542 11.8778 31.542 9.77116C31.542 7.0385 29.3267 4.82324 26.5941 4.82324C23.8614 4.82324 21.6462 7.0385 21.6462 9.77116C21.6462 12.2964 23.5379 14.3799 25.9816 14.6815L23.775 32.5316L13.1379 23.2929C14.1105 22.3894 14.7191 21.0992 14.7191 19.667C14.7191 16.9343 12.5038 14.7191 9.77116 14.7191C7.0385 14.7191 4.82324 16.9343 4.82324 19.667C4.82324 22.3997 7.0385 24.6149 9.77116 24.6149C10.2522 24.6149 10.7172 24.5463 11.1569 24.4182L16.6982 43.417L22.4286 52.7939L16.6982 53.8076V61.2295L54.3785 61.2295V53.8076L48.5747 52.7897L54.3024 43.417L59.8437 24.4182C60.2834 24.5463 60.7485 24.6149 61.2295 24.6149C63.9622 24.6149 66.1774 22.3997 66.1774 19.667C66.1774 16.9343 63.9622 14.7191 61.2295 14.7191C58.4968 14.7191 56.2816 16.9343 56.2816 19.667C56.2816 21.0992 56.8901 22.3894 57.8627 23.2929L47.2256 32.5316L45.0191 14.6815C47.4627 14.3799 49.3545 12.2964 49.3545 9.77116C49.3545 7.0385 47.1392 4.82324 44.4066 4.82324C41.6739 4.82324 39.4587 7.0385 39.4587 9.77116C39.4587 11.8778 40.7752 13.677 42.6305 14.3907L35.5003 30.5524L28.3702 14.3907Z" fill="#34364C"/>
</svg>
