<svg width="88" height="88" viewBox="0 0 123 122" fill="none" xmlns="http://www.w3.org/2000/svg">
<g transform="scale(1.38) translate(-16% -15%)" transform-origin="50% 50%">
  <rect x="1.32617" y="1" width="120" height="120" fill="url(#paint0_linear_381_7718)" fill-opacity="0.15"/>
  <path d="M49.0345 22.8955C49.93 22.8955 50.7697 23.1349 51.4928 23.5533C52.216 23.1349 53.0556 22.8955 53.9512 22.8955H67.472C68.3676 22.8955 69.2072 23.1349 69.9304 23.5533C70.6535 23.1349 71.4931 22.8955 72.3887 22.8955H84.6803C87.3957 22.8955 89.597 25.0968 89.597 27.8122V38.8747C89.597 40.4222 88.8684 41.8795 87.6303 42.808L80.0437 48.498L82.1919 67.8317C82.7607 72.9503 85.1431 75.5473 88.6137 80.1747C89.252 81.0257 89.597 82.0609 89.597 83.1247V92.958C89.597 95.6734 87.3957 97.8747 84.6803 97.8747H36.7428C34.0274 97.8747 31.8262 95.6734 31.8262 92.958V83.1247C31.8262 82.0609 32.1712 81.0257 32.8095 80.1747C36.2801 75.5473 38.6625 72.9503 39.2312 67.8317L41.3794 48.498L33.7928 42.808C32.5548 41.8795 31.8262 40.4222 31.8262 38.8747V27.8122C31.8262 25.0968 34.0274 22.8955 36.7428 22.8955H49.0345Z" fill="#F4F7FA"/>
  <path d="M36.7427 27.8125H49.0343V35.1875H53.951V27.8125H67.4719V35.1875H72.3885V27.8125H84.6802V38.875L74.8468 46.25L77.3052 68.375H44.1177L46.576 46.25L36.7427 38.875V27.8125Z" fill="#34364C"/>
  <path d="M44.1177 73.2917H77.3052L84.6802 83.125V92.9583H36.7427V83.125L44.1177 73.2917Z" fill="#34364C"/>
  <g clip-path="url(#clip0_381_7718)" transform="scale(1.02) translate(0 -2%)">
  <path d="M49.7776 23.1113C50.6681 23.1113 51.503 23.3494 52.2221 23.7654C52.9412 23.3494 53.776 23.1113 54.6665 23.1113H68.111C69.0014 23.1113 69.8363 23.3494 70.5554 23.7654C71.2745 23.3494 72.1094 23.1113 72.9998 23.1113H85.2221C87.9221 23.1113 90.1109 25.3002 90.1109 28.0002V39.0002C90.1109 40.539 89.3864 41.988 88.1554 42.9113L80.6117 48.5691L82.7477 67.7937C83.3132 72.8833 85.6822 75.4656 89.1332 80.0669C89.7679 80.9131 90.1109 81.9424 90.1109 83.0002V92.778C90.1109 95.4781 87.9221 97.6669 85.2221 97.6669H37.5554C34.8553 97.6669 32.6665 95.4781 32.6665 92.778V83.0002C32.6665 81.9424 33.0096 80.9131 33.6443 80.0669C37.0952 75.4656 39.4642 72.8833 40.0297 67.7937L42.1658 48.5691L34.6221 42.9113C33.391 41.988 32.6665 40.539 32.6665 39.0002V28.0002C32.6665 25.3002 34.8553 23.1113 37.5554 23.1113H49.7776Z" fill="#34364C"/>
  <path d="M37.5557 27.9995H49.7779V35.3328H54.6668V27.9995H68.1112V35.3328H73.0001V27.9995H85.2223V38.9995L75.4446 46.3328L77.889 68.3328H44.889L47.3334 46.3328L37.5557 38.9995V27.9995Z" fill="#F4F7FA"/>
  <path d="M44.889 73.2217H77.889L85.2223 82.9995V92.7773H37.5557V82.9995L44.889 73.2217Z" fill="#F4F7FA"/>
  </g>
</g>
<defs>
<linearGradient id="paint0_linear_381_7718" x1="2.32617" y1="120" x2="144.471" y2="54.0065" gradientUnits="userSpaceOnUse">
<stop stop-color="#FCF8D5"/>
<stop offset="1" stop-color="#FCF8D5" stop-opacity="0"/>
</linearGradient>
<linearGradient id="paint1_linear_381_7718" x1="2.32617" y1="2" x2="144.471" y2="67.9935" gradientUnits="userSpaceOnUse">
<stop stop-color="#FCF8D5"/>
<stop offset="1" stop-color="#FCF8D5" stop-opacity="0.2"/>
</linearGradient>
<clipPath id="clip0_381_7718">
<rect width="45" height="88" fill="white" transform="translate(61 17)"/>
</clipPath>
</defs>
</svg>
