<svg width="22" height="18" viewBox="0 0 22 18" fill="none" xmlns="http://www.w3.org/2000/svg">
<path d="M18.6361 1.91113C17.212 1.24483 15.6893 0.760594 14.0973 0.484863C13.9018 0.83834 13.6734 1.31377 13.5159 1.69198C11.8236 1.43748 10.1469 1.43748 8.48573 1.69198C8.32828 1.31377 8.09468 0.83834 7.89741 0.484863C6.30374 0.760594 4.77928 1.24661 3.35518 1.91466C0.482756 6.25527 -0.29591 10.4881 0.0934236 14.6607C1.99856 16.0835 3.84487 16.9477 5.66003 17.5133C6.1082 16.8964 6.50791 16.2408 6.85224 15.5497C6.19644 15.3005 5.56832 14.993 4.97482 14.636C5.13227 14.5194 5.28628 14.3974 5.43508 14.2719C9.05501 15.9651 12.9882 15.9651 16.5648 14.2719C16.7154 14.3974 16.8694 14.5194 17.0251 14.636C16.4299 14.9948 15.8 15.3023 15.1442 15.5515C15.4885 16.2408 15.8865 16.8982 16.3364 17.515C18.1533 16.9495 20.0014 16.0852 21.9065 14.6607C22.3633 9.82354 21.1261 5.62962 18.6361 1.91113ZM7.34541 12.0946C6.25874 12.0946 5.36759 11.0801 5.36759 9.84474C5.36759 8.60936 6.23972 7.59315 7.34541 7.59315C8.45114 7.59315 9.34226 8.60758 9.32323 9.84474C9.32495 11.0801 8.45114 12.0946 7.34541 12.0946ZM14.6545 12.0946C13.5678 12.0946 12.6767 11.0801 12.6767 9.84474C12.6767 8.60936 13.5488 7.59315 14.6545 7.59315C15.7602 7.59315 16.6514 8.60758 16.6323 9.84474C16.6323 11.0801 15.7602 12.0946 14.6545 12.0946Z" fill="white"/>
</svg>
