<svg width="17" height="16" viewBox="0 0 17 16" fill="none" xmlns="http://www.w3.org/2000/svg">
<g id="queen 1" clip-path="url(#clip0_1349_10372)">
<path id="Vector" d="M10.6932 7.27295C11.095 7.27295 11.4205 6.94726 11.4205 6.54565C11.4205 6.14392 11.095 5.81836 10.6932 5.81836H6.32959C5.92798 5.81836 5.60242 6.14392 5.60242 6.54565C5.60242 6.94726 5.92798 7.27295 6.32959 7.27295H10.6932Z" fill="white"/>
<path id="Vector_2" d="M4.87512 13.8184V15.6365C4.87512 15.8374 5.03796 16.0001 5.23877 16.0001H11.7842C11.985 16.0001 12.1478 15.8374 12.1478 15.6365V13.8184H4.87512Z" fill="white"/>
<path id="Vector_3" d="M6.10489 5.09093H10.9181L12.1095 2.70812C12.1752 2.57678 12.1553 2.41857 12.059 2.30749C11.9622 2.19714 11.8089 2.15502 11.6691 2.20031L9.78665 2.82812L9.00137 1.25756C9.15164 1.12207 9.2377 0.929563 9.23868 0.727293C9.23868 0.325561 8.91312 0 8.5115 0C8.10977 0 7.78421 0.325561 7.78421 0.727293C7.78519 0.929563 7.87137 1.12207 8.02152 1.25756L7.23624 2.82812L5.3538 2.20031C5.21403 2.15551 5.06107 2.19763 4.96391 2.30749C4.86759 2.41857 4.8477 2.57665 4.91349 2.70812L6.10489 5.09093Z" fill="white"/>
<path id="Vector_4" d="M12.0155 13.0909C10.9451 10.8939 10.7441 9.55065 10.7053 8H6.31762C6.27881 9.55065 6.07788 10.8939 5.00745 13.0909H12.0155Z" fill="white"/>
</g>
<defs>
<clipPath id="clip0_1349_10372">
<rect width="16" height="16" fill="white" transform="translate(0.5)"/>
</clipPath>
</defs>
</svg>
