<svg width="17" height="16" viewBox="0 0 17 16" fill="none" xmlns="http://www.w3.org/2000/svg">
<g id="coin 1" clip-path="url(#clip0_1349_10385)">
<g id="Group">
<g id="Group_2">
<path id="Vector" d="M15.4494 5.53661C15.4685 5.4517 15.4787 5.36477 15.4787 5.27573V3.23317C15.4787 1.46427 11.62 0.509766 7.98934 0.509766C4.35869 0.509766 0.5 1.46427 0.5 3.23317C0.5 3.30948 0.507656 3.38414 0.521688 3.45739C0.508406 3.4938 0.5 3.53261 0.5 3.57361V5.27573C0.5 5.84161 0.895375 6.32398 1.55138 6.71861C1.53175 6.80436 1.52128 6.89095 1.52128 6.97783C1.52128 7.05414 1.52894 7.1288 1.54297 7.20208C1.52966 7.23848 1.52128 7.2773 1.52128 7.3183V9.02042C1.52128 9.1767 1.552 9.32648 1.60941 9.46995C0.981219 9.93545 0.840438 10.4014 0.840438 10.7225C0.840438 10.7989 0.848094 10.8735 0.862125 10.9468C0.848813 10.9832 0.840438 11.022 0.840438 11.063V12.7651C0.840438 14.534 4.69916 15.4885 8.32981 15.4885C11.9605 15.4885 15.8192 14.534 15.8192 12.7651V10.7225C15.8192 10.5714 15.789 10.4222 15.7304 10.2765C16.216 9.91945 16.5 9.49992 16.5 9.02042V6.97786V6.97783C16.5 6.60295 16.3121 6.05836 15.4494 5.53661ZM3.04197 1.87111C4.35838 1.43233 6.11544 1.19064 7.98934 1.19064C9.86325 1.19064 11.6203 1.43233 12.9367 1.87111C14.1021 2.25958 14.7978 2.76877 14.7978 3.23317C14.7978 3.69758 14.1021 4.20677 12.9367 4.59523C11.6202 5.03402 9.86325 5.2757 7.98934 5.2757C6.11544 5.2757 4.35834 5.03402 3.04197 4.59523C1.87656 4.20677 1.18084 3.69758 1.18084 3.23317C1.18084 2.76877 1.87659 2.25958 3.04197 1.87111ZM14.7979 4.42152V5.27573C14.7979 5.66914 14.2972 6.09439 13.4362 6.45145V5.13998C13.9849 4.93692 14.4504 4.69702 14.7979 4.42152ZM12.7553 5.36158V6.69536C12.3385 6.8248 11.8816 6.93533 11.3936 7.0258V5.6708C11.8734 5.58614 12.3311 5.48292 12.7553 5.36158ZM10.7128 5.7768V7.13658C10.2761 7.19777 9.82044 7.24414 9.35109 7.27461V5.91227C9.81237 5.88223 10.269 5.83695 10.7128 5.7768ZM8.67022 5.94548V7.30742C8.44537 7.31455 8.21828 7.31827 7.98938 7.31827C7.76047 7.31827 7.53334 7.31455 7.30853 7.30742V5.94545C7.53572 5.95283 7.76297 5.95655 7.98938 5.95655C8.21575 5.95658 8.44303 5.95286 8.67022 5.94548ZM6.62766 5.91227V7.27464C6.15831 7.24414 5.70266 7.1978 5.26594 7.13661V5.77683C5.70969 5.83695 6.16634 5.88223 6.62766 5.91227ZM4.58509 5.67083V7.02583C4.09716 6.93533 3.64019 6.82483 3.22341 6.69539V5.36158C3.64759 5.48292 4.10538 5.58617 4.58509 5.67083ZM1.18084 5.27573V4.42152C1.52828 4.69702 1.99381 4.93692 2.54253 5.13998V6.45145C1.68153 6.09439 1.18084 5.66914 1.18084 5.27573ZM2.20212 8.16614C2.54956 8.44164 3.01509 8.68155 3.56381 8.88461V10.1961C2.70281 9.83905 2.20212 9.4138 2.20212 9.02039V8.16614ZM2.88297 13.9408C2.02197 13.5838 1.52128 13.1585 1.52128 12.7651V11.9109C1.86872 12.1864 2.33425 12.4263 2.88297 12.6294V13.9408ZM4.92553 14.5152C4.43759 14.4247 3.98062 14.3142 3.56384 14.1848V12.851C3.98803 12.9723 4.44581 13.0755 4.92553 13.1602V14.5152ZM6.96809 14.764C6.49875 14.7335 6.04309 14.6871 5.60638 14.626V13.2662C6.05013 13.3263 6.50678 13.3716 6.96809 13.4016V14.764ZM9.01062 14.7968C8.78578 14.8039 8.55869 14.8076 8.32978 14.8076C8.10087 14.8076 7.87375 14.8039 7.64894 14.7968V13.4349C7.87613 13.4422 8.10337 13.446 8.32978 13.446C8.55619 13.446 8.78344 13.4422 9.01062 13.4349V14.7968ZM11.0532 14.626C10.6165 14.6871 10.1608 14.7335 9.6915 14.764V13.4016C10.1528 13.3716 10.6095 13.3263 11.0532 13.2662V14.626ZM13.0957 14.1847C12.6789 14.3142 12.222 14.4247 11.7341 14.5152V13.1602C12.2138 13.0755 12.6716 12.9723 13.0957 12.851V14.1847ZM15.1383 12.7651C15.1383 13.1585 14.6376 13.5838 13.7766 13.9408V12.6294C14.3254 12.4263 14.7909 12.1864 15.1383 11.9109V12.7651ZM13.2772 12.0846C11.9607 12.5234 10.2037 12.7651 8.32981 12.7651C6.45591 12.7651 4.69881 12.5234 3.38244 12.0846C2.21703 11.6961 1.52131 11.187 1.52131 10.7225C1.52131 10.4561 1.75203 10.2124 1.99747 10.0285C3.13762 11.149 6.14494 11.7438 9.01069 11.7438C11.3024 11.7438 13.6845 11.3634 15.1302 10.638C15.1352 10.6663 15.1383 10.6944 15.1383 10.7225C15.1383 11.187 14.4426 11.6961 13.2772 12.0846ZM4.24469 10.4401V9.10623C4.66888 9.22755 5.12666 9.3308 5.60638 9.41545V10.7705C5.11844 10.68 4.66147 10.5695 4.24469 10.4401ZM6.28725 10.8813V9.52145C6.731 9.58158 7.18766 9.62686 7.64894 9.65692V11.0193C7.17959 10.9888 6.72394 10.9425 6.28725 10.8813ZM8.32978 11.0521V9.69011C8.55697 9.69748 8.78422 9.7012 9.01062 9.7012C9.23703 9.7012 9.46428 9.69748 9.69147 9.69011V11.0521C9.46663 11.0592 9.23953 11.063 9.01062 11.063C8.78172 11.063 8.55462 11.0592 8.32978 11.0521ZM10.3723 11.0193V9.65689C10.8337 9.62686 11.2903 9.58158 11.734 9.52142V10.8813C11.2973 10.9425 10.8417 10.9888 10.3723 11.0193ZM12.4149 10.7705V9.41545C12.8947 9.3308 13.3524 9.22755 13.7766 9.10623V10.4401C13.3598 10.5695 12.9028 10.68 12.4149 10.7705ZM15.8192 9.02042C15.8192 9.41383 15.3185 9.83908 14.4575 10.1961V8.88464C15.0062 8.68155 15.4718 8.44167 15.8192 8.16617V9.02042ZM13.958 8.33989C12.6416 8.7787 10.8846 9.02036 9.01066 9.02036C7.13675 9.02036 5.37966 8.7787 4.06328 8.33989C2.95791 7.97145 2.27625 7.49442 2.20884 7.04998C3.67069 7.67336 5.86872 7.99914 7.98938 7.99914C10.9738 7.99914 14.1117 7.35408 15.1344 6.14202C15.5776 6.4173 15.8192 6.71005 15.8192 6.97783C15.8192 7.44223 15.1234 7.95142 13.958 8.33989Z" fill="white"/>
</g>
</g>
</g>
<defs>
<clipPath id="clip0_1349_10385">
<rect width="16" height="16" fill="white" transform="translate(0.5)"/>
</clipPath>
</defs>
</svg>
