<svg width="17" height="16" viewBox="0 0 17 16" fill="none" xmlns="http://www.w3.org/2000/svg">
<g id="timer 1" clip-path="url(#clip0_1349_10379)">
<g id="09-timer">
<path id="Vector" d="M13.3467 4.76283L14.3047 3.80483L13.362 2.86183L12.3371 3.88667C11.4009 3.22319 10.3084 2.81429 9.16665 2.7V1.33333H10.5V0H6.49998V1.33333H7.83332V2.7C6.69154 2.81429 5.59904 3.22319 4.66282 3.88667L3.63798 2.86183L2.69532 3.80483L3.65332 4.76283C2.75908 5.70963 2.16174 6.89762 1.93507 8.18008C1.7084 9.46254 1.86232 10.7833 2.37782 11.9793C2.89333 13.1753 3.74784 14.194 4.83583 14.9098C5.92382 15.6256 7.19764 16.0071 8.49998 16.0071C9.80232 16.0071 11.0761 15.6256 12.1641 14.9098C13.2521 14.194 14.1066 13.1753 14.6221 11.9793C15.1376 10.7833 15.2916 9.46254 15.0649 8.18008C14.8382 6.89762 14.2409 5.70963 13.3467 4.76283ZM8.49998 14.6667C7.44515 14.6667 6.414 14.3539 5.53694 13.7678C4.65988 13.1818 3.97629 12.3489 3.57263 11.3743C3.16896 10.3998 3.06334 9.32742 3.26913 8.29285C3.47492 7.25829 3.98287 6.30798 4.72875 5.5621C5.47463 4.81622 6.42494 4.30827 7.4595 4.10248C8.49407 3.89669 9.56642 4.00231 10.541 4.40598C11.5155 4.80964 12.3485 5.49323 12.9345 6.37029C13.5205 7.24735 13.8333 8.2785 13.8333 9.33333C13.8317 10.7473 13.2693 12.103 12.2695 13.1028C11.2696 14.1027 9.91398 14.6651 8.49998 14.6667Z" fill="white"/>
<path id="Vector_2" d="M8.5 5.33398V9.33398H4.5C4.5 10.1251 4.7346 10.8985 5.17412 11.5563C5.61365 12.2141 6.23836 12.7268 6.96927 13.0295C7.70017 13.3323 8.50444 13.4115 9.28036 13.2571C10.0563 13.1028 10.769 12.7218 11.3284 12.1624C11.8878 11.603 12.2688 10.8903 12.4231 10.1143C12.5775 9.33842 12.4983 8.53416 12.1955 7.80325C11.8928 7.07235 11.3801 6.44763 10.7223 6.00811C10.0645 5.56858 9.29113 5.33398 8.5 5.33398Z" fill="white"/>
</g>
</g>
<defs>
<clipPath id="clip0_1349_10379">
<rect width="16" height="16" fill="white" transform="translate(0.5)"/>
</clipPath>
</defs>
</svg>
