<svg width="88" height="88" viewBox="0 0 88 88" fill="none" xmlns="http://www.w3.org/2000/svg">
<path d="M31.7776 6.11133C32.6681 6.11133 33.503 6.3494 34.2221 6.76538C34.9412 6.3494 35.776 6.11133 36.6665 6.11133H50.111C51.0014 6.11133 51.8363 6.3494 52.5554 6.76538C53.2745 6.3494 54.1094 6.11133 54.9998 6.11133H67.2221C69.9221 6.11133 72.1109 8.30016 72.1109 11.0002V22.0002C72.1109 23.539 71.3864 24.988 70.1554 25.9113L62.6117 31.5691L64.7477 50.7937C65.3132 55.8833 67.6822 58.4656 71.1332 63.0669C71.7679 63.9131 72.1109 64.9424 72.1109 66.0002V75.778C72.1109 78.4781 69.9221 80.6669 67.2221 80.6669H19.5554C16.8553 80.6669 14.6665 78.4781 14.6665 75.778V66.0002C14.6665 64.9424 15.0096 63.9131 15.6443 63.0669C19.0952 58.4656 21.4642 55.8833 22.0297 50.7937L24.1658 31.5691L16.6221 25.9113C15.391 24.988 14.6665 23.539 14.6665 22.0002V11.0002C14.6665 8.30016 16.8553 6.11133 19.5554 6.11133H31.7776Z" fill="#34364C"/>
<path d="M19.5557 11H31.7779V18.3333H36.6668V11H50.1112V18.3333H55.0001V11H67.2223V22L57.4446 29.3333L59.889 51.3333H26.889L29.3334 29.3333L19.5557 22V11Z" fill="#F4F7FA"/>
<path d="M26.889 56.2222H59.889L67.2223 66V75.7778H19.5557V66L26.889 56.2222Z" fill="#F4F7FA"/>
</svg>
